<svg width="28" height="28" viewBox="0 0 28 28" fill="none" xmlns="http://www.w3.org/2000/svg">
<path d="M28 14C28 21.732 21.732 28 14 28C6.26801 28 0 21.732 0 14C0 6.26801 6.26801 0 14 0C21.732 0 28 6.26801 28 14Z" fill="#0052B5"/>
<path d="M10.5 7.7V0.441061C11.0701 0.29433 11.6542 0.182605 12.25 0.108314C12.8233 0.0368258 13.4073 0 14 0C14.5927 0 15.1767 0.0368258 15.75 0.108314C16.3458 0.182605 16.9299 0.29433 17.5 0.441061V9.625L23.45 3.67044C24.0914 4.25753 25.0269 5.42858 25.55 6.125L21 10.5H27.5589C27.7057 11.0701 27.8174 11.6542 27.8917 12.25C27.9632 12.8233 28 13.4073 28 14C28 14.5927 27.9632 15.1767 27.8917 15.75C27.8174 16.3458 27.7057 16.9299 27.5589 17.5H19.95L25.201 22.4C24.4485 23.4019 23.5646 24.2996 22.575 25.0674L17.5 19.95V27.5589C16.9299 27.7057 16.3458 27.8174 15.75 27.8917C15.1767 27.9632 14.5927 28 14 28C13.4073 28 12.8233 27.9632 12.25 27.8917C11.6542 27.8174 11.0701 27.7057 10.5 27.5589L10.5 18.55L4.725 24.4871C3.9418 23.7939 3.23683 23.0143 2.625 22.1633L7.7 17.5H0.441061C0.294331 16.9299 0.182606 16.3458 0.108315 15.75C0.0368261 15.1767 0 14.5927 0 14C0 13.4073 0.0368258 12.8233 0.108314 12.25C0.182605 11.6542 0.29433 11.0701 0.441061 10.5H7.875L2.8 5.59863C3.57676 4.56477 4.49333 3.64196 5.52165 2.85826L10.5 7.7Z" fill="white"/>
<path d="M10.5 10.5L4.11072 4.0903C3.77287 4.42746 3.45216 4.78178 3.15 5.15186L8.75 10.5H10.5Z" fill="#D90026"/>
<path d="M17.5 10.5L23.8893 4.09029C24.2271 4.42745 24.5478 4.78178 24.85 5.15186L19.25 10.5H17.5Z" fill="#D90026"/>
<path d="M17.5 17.6202L23.8893 24.0299C24.2271 23.6927 24.5478 23.3384 24.85 22.9683L19.25 17.6202H17.5Z" fill="#D90026"/>
<path d="M10.5 17.6202L4.11072 24.0299C3.77287 23.6927 3.45216 23.3384 3.15 22.9683L8.75 17.6202H10.5Z" fill="#D90026"/>
<path d="M0.108314 12.25C0.0368258 12.8233 0 13.4073 0 14C0 14.5927 0.0368261 15.1767 0.108315 15.75H12.25V27.8917C12.8233 27.9632 13.4073 28 14 28C14.5927 28 15.1767 27.9632 15.75 27.8917V15.75H27.8917C27.9632 15.1767 28 14.5927 28 14C28 13.4073 27.9632 12.8233 27.8917 12.25H15.75V0.108314C15.065 0.00527325 14.7137 0 14 0C13.4073 0 12.8233 0.0368258 12.25 0.108314V12.25H0.108314Z" fill="#D90026"/>
</svg>
