<svg width="70" height="50" viewBox="0 0 70 50" fill="none" xmlns="http://www.w3.org/2000/svg">
<mask id="mask0_82_4" style="mask-type:luminance" maskUnits="userSpaceOnUse" x="0" y="0" width="70" height="50">
<path d="M66 0H4C1.79086 0 0 1.79086 0 4V46C0 48.2091 1.79086 50 4 50H66C68.2091 50 70 48.2091 70 46V4C70 1.79086 68.2091 0 66 0Z" fill="white"/>
</mask>
<g mask="url(#mask0_82_4)">
<path d="M66 0H4C1.79086 0 0 1.79086 0 4V46C0 48.2091 1.79086 50 4 50H66C68.2091 50 70 48.2091 70 46V4C70 1.79086 68.2091 0 66 0Z" fill="#00A0D2" fill-opacity="0.01" stroke="#3498DB" stroke-width="2"/>
</g>
<path d="M10.6612 29H8.68395L11.6967 20.2727H14.0746L17.0831 29H15.1058L12.9197 22.267H12.8516L10.6612 29ZM10.5376 25.5696H15.2081V27.0099H10.5376V25.5696ZM18.1335 29V20.2727H19.9489V23.554H20.0043C20.0838 23.3778 20.1989 23.1989 20.3494 23.017C20.5028 22.8324 20.7017 22.679 20.946 22.5568C21.1932 22.4318 21.5 22.3693 21.8665 22.3693C22.3438 22.3693 22.7841 22.4943 23.1875 22.7443C23.5909 22.9915 23.9134 23.3651 24.1548 23.8651C24.3963 24.3622 24.517 24.9858 24.517 25.7358C24.517 26.4659 24.3991 27.0824 24.1634 27.5852C23.9304 28.0852 23.6122 28.4645 23.2088 28.723C22.8082 28.9787 22.3594 29.1065 21.8622 29.1065C21.5099 29.1065 21.2102 29.0483 20.9631 28.9318C20.7188 28.8153 20.5185 28.669 20.3622 28.4929C20.206 28.3139 20.0866 28.1335 20.0043 27.9517H19.9233V29H18.1335ZM19.9105 25.7273C19.9105 26.1165 19.9645 26.456 20.0724 26.7457C20.1804 27.0355 20.3366 27.2614 20.5412 27.4233C20.7457 27.5824 20.9943 27.6619 21.2869 27.6619C21.5824 27.6619 21.8324 27.581 22.0369 27.419C22.2415 27.2543 22.3963 27.027 22.5014 26.7372C22.6094 26.4446 22.6634 26.108 22.6634 25.7273C22.6634 25.3494 22.6108 25.017 22.5057 24.7301C22.4006 24.4432 22.2457 24.2187 22.0412 24.0568C21.8366 23.8949 21.5852 23.8139 21.2869 23.8139C20.9915 23.8139 20.7415 23.892 20.5369 24.0483C20.3352 24.2045 20.1804 24.4261 20.0724 24.7131C19.9645 25 19.9105 25.3381 19.9105 25.7273ZM31.1744 24.321L29.5124 24.4233C29.484 24.2812 29.4229 24.1534 29.3292 24.0398C29.2354 23.9233 29.1119 23.831 28.9585 23.7628C28.8079 23.6918 28.6275 23.6562 28.4173 23.6562C28.136 23.6562 27.8988 23.7159 27.7056 23.8352C27.5124 23.9517 27.4158 24.108 27.4158 24.304C27.4158 24.4602 27.4783 24.5923 27.6033 24.7003C27.7283 24.8082 27.9428 24.8949 28.2468 24.9602L29.4315 25.1989C30.0678 25.3295 30.5423 25.5398 30.8548 25.8295C31.1673 26.1193 31.3235 26.5 31.3235 26.9716C31.3235 27.4006 31.1971 27.777 30.9442 28.1009C30.6942 28.4247 30.3505 28.6776 29.913 28.8594C29.4783 29.0384 28.9769 29.1278 28.4087 29.1278C27.5423 29.1278 26.8519 28.9474 26.3377 28.5866C25.8263 28.223 25.5266 27.7287 25.4386 27.1037L27.2241 27.0099C27.2781 27.2741 27.4087 27.4759 27.6161 27.6151C27.8235 27.7514 28.0891 27.8196 28.413 27.8196C28.7312 27.8196 28.9869 27.7585 29.18 27.6364C29.3761 27.5114 29.4755 27.3509 29.4783 27.1548C29.4755 26.9901 29.4059 26.8551 29.2695 26.75C29.1332 26.642 28.9229 26.5597 28.6388 26.5028L27.5053 26.277C26.8661 26.1491 26.3903 25.9276 26.0778 25.6122C25.7681 25.2969 25.6133 24.8949 25.6133 24.4062C25.6133 23.9858 25.7269 23.6236 25.9542 23.3196C26.1843 23.0156 26.5067 22.7812 26.9215 22.6165C27.3391 22.4517 27.8278 22.3693 28.3874 22.3693C29.2141 22.3693 29.8647 22.544 30.3391 22.8935C30.8164 23.2429 31.0948 23.7187 31.1744 24.321ZM35.424 29.1278C34.7621 29.1278 34.1896 28.9872 33.7067 28.706C33.2266 28.4219 32.8558 28.027 32.5945 27.5213C32.3331 27.0128 32.2024 26.4233 32.2024 25.7528C32.2024 25.0767 32.3331 24.4858 32.5945 23.9801C32.8558 23.4716 33.2266 23.0767 33.7067 22.7955C34.1896 22.5114 34.7621 22.3693 35.424 22.3693C36.0859 22.3693 36.657 22.5114 37.1371 22.7955C37.62 23.0767 37.9922 23.4716 38.2536 23.9801C38.5149 24.4858 38.6456 25.0767 38.6456 25.7528C38.6456 26.4233 38.5149 27.0128 38.2536 27.5213C37.9922 28.027 37.62 28.4219 37.1371 28.706C36.657 28.9872 36.0859 29.1278 35.424 29.1278ZM35.4325 27.7216C35.7337 27.7216 35.9851 27.6364 36.1868 27.4659C36.3885 27.2926 36.5405 27.0568 36.6428 26.7585C36.7479 26.4602 36.8004 26.1207 36.8004 25.7401C36.8004 25.3594 36.7479 25.0199 36.6428 24.7216C36.5405 24.4233 36.3885 24.1875 36.1868 24.0142C35.9851 23.8409 35.7337 23.7543 35.4325 23.7543C35.1286 23.7543 34.8729 23.8409 34.6655 24.0142C34.4609 24.1875 34.3061 24.4233 34.201 24.7216C34.0987 25.0199 34.0476 25.3594 34.0476 25.7401C34.0476 26.1207 34.0987 26.4602 34.201 26.7585C34.3061 27.0568 34.4609 27.2926 34.6655 27.4659C34.8729 27.6364 35.1286 27.7216 35.4325 27.7216ZM41.6413 20.2727V29H39.826V20.2727H41.6413ZM47.293 26.2131V22.4545H49.1083V29H47.3654V27.8111H47.2972C47.1495 28.1946 46.9038 28.5028 46.56 28.7358C46.2191 28.9687 45.8029 29.0852 45.3114 29.0852C44.8739 29.0852 44.489 28.9858 44.1566 28.7869C43.8242 28.5881 43.5643 28.3054 43.3768 27.9389C43.1921 27.5724 43.0984 27.1335 43.0955 26.6222V22.4545H44.9109V26.2983C44.9137 26.6847 45.0174 26.9901 45.2219 27.2145C45.4265 27.4389 45.7006 27.5511 46.0444 27.5511C46.2631 27.5511 46.4677 27.5014 46.658 27.402C46.8484 27.2997 47.0018 27.1491 47.1183 26.9503C47.2376 26.7514 47.2958 26.5057 47.293 26.2131ZM54.0419 22.4545V23.8182H50.1001V22.4545H54.0419ZM50.995 20.8864H52.8104V26.9886C52.8104 27.1562 52.8359 27.2869 52.8871 27.3807C52.9382 27.4716 53.0092 27.5355 53.1001 27.5724C53.1939 27.6094 53.3018 27.6278 53.424 27.6278C53.5092 27.6278 53.5945 27.6207 53.6797 27.6065C53.7649 27.5895 53.8303 27.5767 53.8757 27.5682L54.1612 28.919C54.0703 28.9474 53.9425 28.9801 53.7777 29.017C53.6129 29.0568 53.4126 29.081 53.1768 29.0895C52.7393 29.1065 52.3558 29.0483 52.0263 28.9148C51.6996 28.7812 51.4453 28.5739 51.2635 28.2926C51.0817 28.0114 50.9922 27.6562 50.995 27.2273V20.8864ZM58.1371 29.1278C57.4638 29.1278 56.8842 28.9915 56.3984 28.7188C55.9155 28.4432 55.5433 28.054 55.282 27.5511C55.0206 27.0455 54.8899 26.4474 54.8899 25.7571C54.8899 25.0838 55.0206 24.4929 55.282 23.9844C55.5433 23.4759 55.9112 23.0795 56.3857 22.7955C56.8629 22.5114 57.4226 22.3693 58.0646 22.3693C58.4964 22.3693 58.8984 22.4389 59.2706 22.5781C59.6456 22.7145 59.9723 22.9205 60.2507 23.196C60.532 23.4716 60.7507 23.8182 60.907 24.2358C61.0632 24.6506 61.1413 25.1364 61.1413 25.6932V26.1918H55.6143V25.0668H59.4325C59.4325 24.8054 59.3757 24.5739 59.2621 24.3722C59.1484 24.1705 58.9908 24.0128 58.7891 23.8991C58.5902 23.7827 58.3587 23.7244 58.0945 23.7244C57.8189 23.7244 57.5746 23.7884 57.3615 23.9162C57.1513 24.0412 56.9865 24.2102 56.8672 24.4233C56.7479 24.6335 56.6868 24.8679 56.6839 25.1264V26.196C56.6839 26.5199 56.7436 26.7997 56.8629 27.0355C56.9851 27.2713 57.157 27.4531 57.3786 27.581C57.6001 27.7088 57.8629 27.7727 58.1669 27.7727C58.3686 27.7727 58.5533 27.7443 58.7209 27.6875C58.8885 27.6307 59.032 27.5455 59.1513 27.4318C59.2706 27.3182 59.3615 27.179 59.424 27.0142L61.103 27.125C61.0178 27.5284 60.843 27.8807 60.5788 28.1818C60.3175 28.4801 59.9794 28.7131 59.5646 28.8807C59.1527 29.0455 58.6768 29.1278 58.1371 29.1278Z" fill="#3498DB"/>
</svg>
