<svg width="70" height="51" viewBox="0 0 70 51" fill="none" xmlns="http://www.w3.org/2000/svg">
<mask id="mask0_80_37" style="mask-type:luminance" maskUnits="userSpaceOnUse" x="0" y="1" width="70" height="50">
<path d="M66 1H4C1.79086 1 0 2.79086 0 5V47C0 49.2091 1.79086 51 4 51H66C68.2091 51 70 49.2091 70 47V5C70 2.79086 68.2091 1 66 1Z" fill="white"/>
</mask>
<g mask="url(#mask0_80_37)">
<path d="M66 1H4C1.79086 1 0 2.79086 0 5V47C0 49.2091 1.79086 51 4 51H66C68.2091 51 70 49.2091 70 47V5C70 2.79086 68.2091 1 66 1Z" fill="#00A0D2" fill-opacity="0.01" stroke="#3498DB" stroke-width="2"/>
</g>
<path d="M47.5704 32.78C47.8264 32.78 48.0264 32.856 48.1704 33.008C48.3144 33.152 48.3864 33.344 48.3864 33.584V35H36.8184V34.196C36.8184 34.036 36.8504 33.868 36.9144 33.692C36.9784 33.508 37.0864 33.344 37.2384 33.2L42.6864 27.74C43.1424 27.284 43.5544 26.844 43.9224 26.42C44.2904 25.996 44.6024 25.576 44.8584 25.16C45.1144 24.736 45.3104 24.304 45.4464 23.864C45.5904 23.424 45.6624 22.96 45.6624 22.472C45.6624 21.992 45.5864 21.572 45.4344 21.212C45.2824 20.844 45.0744 20.54 44.8104 20.3C44.5464 20.06 44.2344 19.88 43.8744 19.76C43.5144 19.64 43.1264 19.58 42.7104 19.58C42.2944 19.58 41.9104 19.64 41.5584 19.76C41.2144 19.88 40.9064 20.048 40.6344 20.264C40.3624 20.48 40.1344 20.736 39.9504 21.032C39.7664 21.328 39.6344 21.648 39.5544 21.992C39.4424 22.296 39.2984 22.5 39.1224 22.604C38.9544 22.708 38.7064 22.732 38.3784 22.676L37.1544 22.46C37.2664 21.66 37.4864 20.956 37.8144 20.348C38.1424 19.74 38.5544 19.232 39.0504 18.824C39.5464 18.408 40.1144 18.096 40.7544 17.888C41.4024 17.68 42.0984 17.576 42.8424 17.576C43.5944 17.576 44.2864 17.688 44.9184 17.912C45.5584 18.128 46.1104 18.444 46.5744 18.86C47.0384 19.276 47.4024 19.784 47.6664 20.384C47.9304 20.976 48.0624 21.648 48.0624 22.4C48.0624 23.04 47.9664 23.636 47.7744 24.188C47.5904 24.732 47.3344 25.252 47.0064 25.748C46.6864 26.244 46.3104 26.728 45.8784 27.2C45.4544 27.664 45.0024 28.136 44.5224 28.616L40.1544 33.08C40.4904 32.992 40.8264 32.92 41.1624 32.864C41.5064 32.808 41.8304 32.78 42.1344 32.78H47.5704Z" fill="#3498DB"/>
<path d="M34.5612 26.384C34.5612 27.888 34.3972 29.192 34.0692 30.296C33.7492 31.4 33.3052 32.316 32.7372 33.044C32.1772 33.764 31.5132 34.3 30.7452 34.652C29.9852 35.004 29.1652 35.18 28.2852 35.18C27.4052 35.18 26.5812 35.004 25.8132 34.652C25.0532 34.3 24.3932 33.764 23.8332 33.044C23.2732 32.316 22.8332 31.4 22.5132 30.296C22.1932 29.192 22.0332 27.888 22.0332 26.384C22.0332 24.88 22.1932 23.576 22.5132 22.472C22.8332 21.36 23.2732 20.444 23.8332 19.724C24.3932 18.996 25.0532 18.456 25.8132 18.104C26.5812 17.752 27.4052 17.576 28.2852 17.576C29.1652 17.576 29.9852 17.752 30.7452 18.104C31.5132 18.456 32.1772 18.996 32.7372 19.724C33.3052 20.444 33.7492 21.36 34.0692 22.472C34.3972 23.576 34.5612 24.88 34.5612 26.384ZM32.1372 26.384C32.1372 25.088 32.0292 24.004 31.8132 23.132C31.6052 22.26 31.3212 21.56 30.9612 21.032C30.6092 20.496 30.2012 20.116 29.7372 19.892C29.2732 19.668 28.7892 19.556 28.2852 19.556C27.7812 19.556 27.2972 19.668 26.8332 19.892C26.3692 20.116 25.9572 20.496 25.5972 21.032C25.2452 21.56 24.9652 22.26 24.7572 23.132C24.5492 24.004 24.4452 25.088 24.4452 26.384C24.4452 27.68 24.5492 28.764 24.7572 29.636C24.9652 30.508 25.2452 31.208 25.5972 31.736C25.9572 32.264 26.3692 32.64 26.8332 32.864C27.2972 33.088 27.7812 33.2 28.2852 33.2C28.7892 33.2 29.2732 33.088 29.7372 32.864C30.2012 32.64 30.6092 32.264 30.9612 31.736C31.3212 31.208 31.6052 30.508 31.8132 29.636C32.0292 28.764 32.1372 27.68 32.1372 26.384Z" fill="#3498DB"/>
</svg>
