<svg width="70" height="51" viewBox="0 0 70 51" fill="none" xmlns="http://www.w3.org/2000/svg">
<mask id="mask0_80_64" style="mask-type:luminance" maskUnits="userSpaceOnUse" x="0" y="1" width="70" height="50">
<path d="M66 1H4C1.79086 1 0 2.79086 0 5V47C0 49.2091 1.79086 51 4 51H66C68.2091 51 70 49.2091 70 47V5C70 2.79086 68.2091 1 66 1Z" fill="white"/>
</mask>
<g mask="url(#mask0_80_64)">
<path d="M66 1H4C1.79086 1 0 2.79086 0 5V47C0 49.2091 1.79086 51 4 51H66C68.2091 51 70 49.2091 70 47V5C70 2.79086 68.2091 1 66 1Z" fill="#00A0D2" fill-opacity="0.01" stroke="#3498DB" stroke-width="2"/>
</g>
<path d="M40.2157 24.2C41.0957 24.016 41.8917 23.924 42.6037 23.924C43.4997 23.924 44.2917 24.06 44.9797 24.332C45.6677 24.596 46.2437 24.964 46.7077 25.436C47.1797 25.9 47.5317 26.452 47.7637 27.092C48.0037 27.724 48.1237 28.412 48.1237 29.156C48.1237 30.068 47.9637 30.896 47.6437 31.64C47.3237 32.384 46.8837 33.02 46.3237 33.548C45.7637 34.076 45.0997 34.484 44.3317 34.772C43.5717 35.052 42.7517 35.192 41.8717 35.192C41.3517 35.192 40.8557 35.14 40.3837 35.036C39.9197 34.932 39.4837 34.796 39.0757 34.628C38.6677 34.452 38.2877 34.252 37.9357 34.028C37.5917 33.804 37.2837 33.568 37.0117 33.32L37.7317 32.312C37.8837 32.088 38.0877 31.976 38.3437 31.976C38.5117 31.976 38.6957 32.04 38.8957 32.168C39.1037 32.288 39.3477 32.424 39.6277 32.576C39.9077 32.728 40.2397 32.868 40.6237 32.996C41.0077 33.116 41.4637 33.176 41.9917 33.176C42.5757 33.176 43.0997 33.084 43.5637 32.9C44.0357 32.708 44.4317 32.44 44.7517 32.096C45.0797 31.752 45.3277 31.34 45.4957 30.86C45.6717 30.38 45.7597 29.848 45.7597 29.264C45.7597 28.744 45.6837 28.276 45.5317 27.86C45.3797 27.444 45.1517 27.088 44.8477 26.792C44.5437 26.496 44.1637 26.272 43.7077 26.12C43.2517 25.96 42.7197 25.88 42.1117 25.88C41.2637 25.88 40.3597 26.032 39.3997 26.336L37.9237 25.904L39.3277 17.768H47.5837V18.788C47.5837 19.124 47.4757 19.4 47.2597 19.616C47.0517 19.824 46.6997 19.928 46.2037 19.928H40.9597L40.2157 24.2Z" fill="#3498DB"/>
<path d="M34.5612 26.384C34.5612 27.888 34.3972 29.192 34.0692 30.296C33.7492 31.4 33.3052 32.316 32.7372 33.044C32.1772 33.764 31.5132 34.3 30.7452 34.652C29.9852 35.004 29.1652 35.18 28.2852 35.18C27.4052 35.18 26.5812 35.004 25.8132 34.652C25.0532 34.3 24.3932 33.764 23.8332 33.044C23.2732 32.316 22.8332 31.4 22.5132 30.296C22.1932 29.192 22.0332 27.888 22.0332 26.384C22.0332 24.88 22.1932 23.576 22.5132 22.472C22.8332 21.36 23.2732 20.444 23.8332 19.724C24.3932 18.996 25.0532 18.456 25.8132 18.104C26.5812 17.752 27.4052 17.576 28.2852 17.576C29.1652 17.576 29.9852 17.752 30.7452 18.104C31.5132 18.456 32.1772 18.996 32.7372 19.724C33.3052 20.444 33.7492 21.36 34.0692 22.472C34.3972 23.576 34.5612 24.88 34.5612 26.384ZM32.1372 26.384C32.1372 25.088 32.0292 24.004 31.8132 23.132C31.6052 22.26 31.3212 21.56 30.9612 21.032C30.6092 20.496 30.2012 20.116 29.7372 19.892C29.2732 19.668 28.7892 19.556 28.2852 19.556C27.7812 19.556 27.2972 19.668 26.8332 19.892C26.3692 20.116 25.9572 20.496 25.5972 21.032C25.2452 21.56 24.9652 22.26 24.7572 23.132C24.5492 24.004 24.4452 25.088 24.4452 26.384C24.4452 27.68 24.5492 28.764 24.7572 29.636C24.9652 30.508 25.2452 31.208 25.5972 31.736C25.9572 32.264 26.3692 32.64 26.8332 32.864C27.2972 33.088 27.7812 33.2 28.2852 33.2C28.7892 33.2 29.2732 33.088 29.7372 32.864C30.2012 32.64 30.6092 32.264 30.9612 31.736C31.3212 31.208 31.6052 30.508 31.8132 29.636C32.0292 28.764 32.1372 27.68 32.1372 26.384Z" fill="#3498DB"/>
</svg>
