<svg width="70" height="51" viewBox="0 0 70 51" fill="none" xmlns="http://www.w3.org/2000/svg">
<mask id="mask0_80_55" style="mask-type:luminance" maskUnits="userSpaceOnUse" x="0" y="1" width="70" height="50">
<path d="M66 1H4C1.79086 1 0 2.79086 0 5V47C0 49.2091 1.79086 51 4 51H66C68.2091 51 70 49.2091 70 47V5C70 2.79086 68.2091 1 66 1Z" fill="white"/>
</mask>
<g mask="url(#mask0_80_55)">
<path d="M66 1H4C1.79086 1 0 2.79086 0 5V47C0 49.2091 1.79086 51 4 51H66C68.2091 51 70 49.2091 70 47V5C70 2.79086 68.2091 1 66 1Z" fill="#00A0D2" fill-opacity="0.01" stroke="#3498DB" stroke-width="2"/>
</g>
<path d="M44.4508 28.712V21.992C44.4508 21.76 44.4548 21.516 44.4628 21.26C44.4788 20.996 44.5068 20.724 44.5468 20.444L38.5108 28.712H44.4508ZM48.9988 28.712V30.068C48.9988 30.204 48.9548 30.32 48.8668 30.416C48.7788 30.512 48.6548 30.56 48.4948 30.56H46.5028V35H44.4508V30.56H36.8908C36.7148 30.56 36.5668 30.512 36.4468 30.416C36.3268 30.312 36.2468 30.184 36.2068 30.032L35.9668 28.832L44.2948 17.756H46.5028V28.712H48.9988Z" fill="#3498DB"/>
<path d="M34.5612 26.384C34.5612 27.888 34.3972 29.192 34.0692 30.296C33.7492 31.4 33.3052 32.316 32.7372 33.044C32.1772 33.764 31.5132 34.3 30.7452 34.652C29.9852 35.004 29.1652 35.18 28.2852 35.18C27.4052 35.18 26.5812 35.004 25.8132 34.652C25.0532 34.3 24.3932 33.764 23.8332 33.044C23.2732 32.316 22.8332 31.4 22.5132 30.296C22.1932 29.192 22.0332 27.888 22.0332 26.384C22.0332 24.88 22.1932 23.576 22.5132 22.472C22.8332 21.36 23.2732 20.444 23.8332 19.724C24.3932 18.996 25.0532 18.456 25.8132 18.104C26.5812 17.752 27.4052 17.576 28.2852 17.576C29.1652 17.576 29.9852 17.752 30.7452 18.104C31.5132 18.456 32.1772 18.996 32.7372 19.724C33.3052 20.444 33.7492 21.36 34.0692 22.472C34.3972 23.576 34.5612 24.88 34.5612 26.384ZM32.1372 26.384C32.1372 25.088 32.0292 24.004 31.8132 23.132C31.6052 22.26 31.3212 21.56 30.9612 21.032C30.6092 20.496 30.2012 20.116 29.7372 19.892C29.2732 19.668 28.7892 19.556 28.2852 19.556C27.7812 19.556 27.2972 19.668 26.8332 19.892C26.3692 20.116 25.9572 20.496 25.5972 21.032C25.2452 21.56 24.9652 22.26 24.7572 23.132C24.5492 24.004 24.4452 25.088 24.4452 26.384C24.4452 27.68 24.5492 28.764 24.7572 29.636C24.9652 30.508 25.2452 31.208 25.5972 31.736C25.9572 32.264 26.3692 32.64 26.8332 32.864C27.2972 33.088 27.7812 33.2 28.2852 33.2C28.7892 33.2 29.2732 33.088 29.7372 32.864C30.2012 32.64 30.6092 32.264 30.9612 31.736C31.3212 31.208 31.6052 30.508 31.8132 29.636C32.0292 28.764 32.1372 27.68 32.1372 26.384Z" fill="#3498DB"/>
</svg>
