<svg width="70" height="51" viewBox="0 0 70 51" fill="none" xmlns="http://www.w3.org/2000/svg">
<mask id="mask0_80_46" style="mask-type:luminance" maskUnits="userSpaceOnUse" x="0" y="1" width="70" height="50">
<path d="M66 1H4C1.79086 1 0 2.79086 0 5V47C0 49.2091 1.79086 51 4 51H66C68.2091 51 70 49.2091 70 47V5C70 2.79086 68.2091 1 66 1Z" fill="white"/>
</mask>
<g mask="url(#mask0_80_46)">
<path d="M66 1H4C1.79086 1 0 2.79086 0 5V47C0 49.2091 1.79086 51 4 51H66C68.2091 51 70 49.2091 70 47V5C70 2.79086 68.2091 1 66 1Z" fill="#00A0D2" fill-opacity="0.01" stroke="#3498DB" stroke-width="2"/>
</g>
<path d="M37.2269 22.46C37.3469 21.66 37.5709 20.956 37.8989 20.348C38.2269 19.74 38.6389 19.232 39.1349 18.824C39.6309 18.408 40.1989 18.096 40.8389 17.888C41.4869 17.68 42.1829 17.576 42.9269 17.576C43.6709 17.576 44.3549 17.684 44.9789 17.9C45.6029 18.108 46.1349 18.408 46.5749 18.8C47.0229 19.184 47.3709 19.648 47.6189 20.192C47.8669 20.736 47.9909 21.336 47.9909 21.992C47.9909 22.544 47.9229 23.032 47.7869 23.456C47.6509 23.88 47.4549 24.252 47.1989 24.572C46.9509 24.892 46.6469 25.164 46.2869 25.388C45.9269 25.604 45.5229 25.784 45.0749 25.928C46.1709 26.232 46.9949 26.728 47.5469 27.416C48.0989 28.096 48.3749 28.96 48.3749 30.008C48.3749 30.816 48.2229 31.544 47.9189 32.192C47.6149 32.832 47.1989 33.376 46.6709 33.824C46.1429 34.264 45.5269 34.604 44.8229 34.844C44.1269 35.076 43.3829 35.192 42.5909 35.192C41.6869 35.192 40.9109 35.084 40.2629 34.868C39.6149 34.644 39.0629 34.336 38.6069 33.944C38.1509 33.544 37.7709 33.068 37.4669 32.516C37.1709 31.956 36.9189 31.344 36.7109 30.68L37.7309 30.248C37.9949 30.136 38.2509 30.104 38.4989 30.152C38.7469 30.2 38.9269 30.34 39.0389 30.572C39.1589 30.812 39.2949 31.084 39.4469 31.388C39.6069 31.684 39.8189 31.968 40.0829 32.24C40.3469 32.504 40.6749 32.728 41.0669 32.912C41.4669 33.096 41.9669 33.188 42.5669 33.188C43.1429 33.188 43.6469 33.096 44.0789 32.912C44.5109 32.72 44.8709 32.476 45.1589 32.18C45.4469 31.876 45.6629 31.54 45.8069 31.172C45.9509 30.804 46.0229 30.44 46.0229 30.08C46.0229 29.632 45.9669 29.22 45.8549 28.844C45.7429 28.468 45.5269 28.148 45.2069 27.884C44.8949 27.612 44.4589 27.4 43.8989 27.248C43.3389 27.096 42.6109 27.02 41.7149 27.02V25.316C42.4509 25.308 43.0709 25.232 43.5749 25.088C44.0869 24.944 44.4989 24.744 44.8109 24.488C45.1229 24.232 45.3469 23.928 45.4829 23.576C45.6269 23.224 45.6989 22.832 45.6989 22.4C45.6989 21.928 45.6269 21.516 45.4829 21.164C45.3389 20.812 45.1349 20.52 44.8709 20.288C44.6149 20.048 44.3069 19.872 43.9469 19.76C43.5949 19.64 43.2109 19.58 42.7949 19.58C42.3789 19.58 41.9949 19.64 41.6429 19.76C41.2909 19.88 40.9789 20.048 40.7069 20.264C40.4349 20.48 40.2069 20.736 40.0229 21.032C39.8389 21.328 39.7069 21.648 39.6269 21.992C39.5149 22.296 39.3709 22.5 39.1949 22.604C39.0269 22.708 38.7829 22.732 38.4629 22.676L37.2269 22.46Z" fill="#3498DB"/>
<path d="M34.5612 26.384C34.5612 27.888 34.3972 29.192 34.0692 30.296C33.7492 31.4 33.3052 32.316 32.7372 33.044C32.1772 33.764 31.5132 34.3 30.7452 34.652C29.9852 35.004 29.1652 35.18 28.2852 35.18C27.4052 35.18 26.5812 35.004 25.8132 34.652C25.0532 34.3 24.3932 33.764 23.8332 33.044C23.2732 32.316 22.8332 31.4 22.5132 30.296C22.1932 29.192 22.0332 27.888 22.0332 26.384C22.0332 24.88 22.1932 23.576 22.5132 22.472C22.8332 21.36 23.2732 20.444 23.8332 19.724C24.3932 18.996 25.0532 18.456 25.8132 18.104C26.5812 17.752 27.4052 17.576 28.2852 17.576C29.1652 17.576 29.9852 17.752 30.7452 18.104C31.5132 18.456 32.1772 18.996 32.7372 19.724C33.3052 20.444 33.7492 21.36 34.0692 22.472C34.3972 23.576 34.5612 24.88 34.5612 26.384ZM32.1372 26.384C32.1372 25.088 32.0292 24.004 31.8132 23.132C31.6052 22.26 31.3212 21.56 30.9612 21.032C30.6092 20.496 30.2012 20.116 29.7372 19.892C29.2732 19.668 28.7892 19.556 28.2852 19.556C27.7812 19.556 27.2972 19.668 26.8332 19.892C26.3692 20.116 25.9572 20.496 25.5972 21.032C25.2452 21.56 24.9652 22.26 24.7572 23.132C24.5492 24.004 24.4452 25.088 24.4452 26.384C24.4452 27.68 24.5492 28.764 24.7572 29.636C24.9652 30.508 25.2452 31.208 25.5972 31.736C25.9572 32.264 26.3692 32.64 26.8332 32.864C27.2972 33.088 27.7812 33.2 28.2852 33.2C28.7892 33.2 29.2732 33.088 29.7372 32.864C30.2012 32.64 30.6092 32.264 30.9612 31.736C31.3212 31.208 31.6052 30.508 31.8132 29.636C32.0292 28.764 32.1372 27.68 32.1372 26.384Z" fill="#3498DB"/>
</svg>
