<svg width="70" height="50" viewBox="0 0 70 50" fill="none" xmlns="http://www.w3.org/2000/svg">
<mask id="mask0_82_5" style="mask-type:luminance" maskUnits="userSpaceOnUse" x="0" y="0" width="70" height="50">
<path d="M66 0H4C1.79086 0 0 1.79086 0 4V46C0 48.2091 1.79086 50 4 50H66C68.2091 50 70 48.2091 70 46V4C70 1.79086 68.2091 0 66 0Z" fill="white"/>
</mask>
<g mask="url(#mask0_82_5)">
<path d="M66 0H4C1.79086 0 0 1.79086 0 4V46C0 48.2091 1.79086 50 4 50H66C68.2091 50 70 48.2091 70 46V4C70 1.79086 68.2091 0 66 0Z" fill="#00A0D2" fill-opacity="0.01" stroke="#3498DB" stroke-width="2"/>
</g>
<path d="M12.2097 29V20.2727H15.6529C16.312 20.2727 16.8745 20.3906 17.3404 20.6264C17.8091 20.8594 18.1657 21.1903 18.41 21.6193C18.6571 22.0455 18.7807 22.5469 18.7807 23.1236C18.7807 23.7031 18.6557 24.2017 18.4057 24.6193C18.1557 25.0341 17.7935 25.3523 17.3191 25.5739C16.8475 25.7955 16.2765 25.9062 15.606 25.9062H13.3006V24.4233H15.3077C15.66 24.4233 15.9526 24.375 16.1855 24.2784C16.4185 24.1818 16.5918 24.0369 16.7054 23.8438C16.8219 23.6506 16.8801 23.4105 16.8801 23.1236C16.8801 22.8338 16.8219 22.5895 16.7054 22.3906C16.5918 22.1918 16.4171 22.0412 16.1813 21.9389C15.9483 21.8338 15.6543 21.7812 15.2992 21.7812H14.0549V29H12.2097ZM16.9228 25.0284L19.0918 29H17.0549L14.9327 25.0284H16.9228ZM22.9281 29.1278C22.2548 29.1278 21.6752 28.9915 21.1895 28.7188C20.7065 28.4432 20.3343 28.054 20.073 27.5511C19.8116 27.0455 19.6809 26.4474 19.6809 25.7571C19.6809 25.0838 19.8116 24.4929 20.073 23.9844C20.3343 23.4759 20.7022 23.0795 21.1767 22.7955C21.6539 22.5114 22.2136 22.3693 22.8556 22.3693C23.2875 22.3693 23.6895 22.4389 24.0616 22.5781C24.4366 22.7145 24.7633 22.9205 25.0417 23.196C25.323 23.4716 25.5417 23.8182 25.698 24.2358C25.8542 24.6506 25.9324 25.1364 25.9324 25.6932V26.1918H20.4054V25.0668H24.2235C24.2235 24.8054 24.1667 24.5739 24.0531 24.3722C23.9395 24.1705 23.7818 24.0128 23.5801 23.8991C23.3812 23.7827 23.1497 23.7244 22.8855 23.7244C22.6099 23.7244 22.3656 23.7884 22.1525 23.9162C21.9423 24.0412 21.7775 24.2102 21.6582 24.4233C21.5389 24.6335 21.4778 24.8679 21.475 25.1264V26.196C21.475 26.5199 21.5346 26.7997 21.6539 27.0355C21.7761 27.2713 21.948 27.4531 22.1696 27.581C22.3912 27.7088 22.6539 27.7727 22.9579 27.7727C23.1596 27.7727 23.3443 27.7443 23.5119 27.6875C23.6795 27.6307 23.823 27.5455 23.9423 27.4318C24.0616 27.3182 24.1525 27.179 24.215 27.0142L25.894 27.125C25.8088 27.5284 25.6341 27.8807 25.3699 28.1818C25.1085 28.4801 24.7704 28.7131 24.3556 28.8807C23.9437 29.0455 23.4679 29.1278 22.9281 29.1278ZM28.9324 20.2727V29H27.117V20.2727H28.9324ZM32.253 29.1236C31.8354 29.1236 31.4632 29.0511 31.1365 28.9062C30.8098 28.7585 30.5513 28.5412 30.361 28.2543C30.1735 27.9645 30.0797 27.6037 30.0797 27.1719C30.0797 26.8082 30.1465 26.5028 30.28 26.2557C30.4135 26.0085 30.5953 25.8097 30.8255 25.6591C31.0556 25.5085 31.3169 25.3949 31.6096 25.3182C31.905 25.2415 32.2147 25.1875 32.5385 25.1562C32.9192 25.1165 33.226 25.0795 33.459 25.0455C33.6919 25.0085 33.861 24.9545 33.9661 24.8835C34.0712 24.8125 34.1238 24.7074 34.1238 24.5682V24.5426C34.1238 24.2727 34.0385 24.0639 33.8681 23.9162C33.7005 23.7685 33.4618 23.6946 33.1522 23.6946C32.8255 23.6946 32.5655 23.767 32.3723 23.9119C32.1792 24.054 32.0513 24.233 31.9888 24.4489L30.3098 24.3125C30.3951 23.9148 30.5627 23.571 30.8127 23.2812C31.0627 22.9886 31.3851 22.7642 31.78 22.608C32.1777 22.4489 32.638 22.3693 33.1607 22.3693C33.5243 22.3693 33.8723 22.4119 34.2047 22.4972C34.54 22.5824 34.8368 22.7145 35.0953 22.8935C35.3567 23.0724 35.5627 23.3026 35.7132 23.5838C35.8638 23.8622 35.9391 24.196 35.9391 24.5852V29H34.2175V28.0923H34.1664C34.0613 28.2969 33.9206 28.4773 33.7445 28.6335C33.5684 28.7869 33.3567 28.9077 33.1096 28.9957C32.8624 29.081 32.5769 29.1236 32.253 29.1236ZM32.7729 27.8707C33.04 27.8707 33.2757 27.8182 33.4803 27.7131C33.6848 27.6051 33.8453 27.4602 33.9618 27.2784C34.0783 27.0966 34.1365 26.8906 34.1365 26.6605V25.9659C34.0797 26.0028 34.0016 26.0369 33.9022 26.0682C33.8056 26.0966 33.6962 26.1236 33.574 26.1491C33.4519 26.1719 33.3297 26.1932 33.2076 26.2131C33.0854 26.2301 32.9746 26.2457 32.8752 26.2599C32.6621 26.2912 32.476 26.3409 32.3169 26.4091C32.1578 26.4773 32.0343 26.5696 31.9462 26.6861C31.8581 26.7997 31.8141 26.9418 31.8141 27.1122C31.8141 27.3594 31.9036 27.5483 32.0826 27.679C32.2644 27.8068 32.4945 27.8707 32.7729 27.8707ZM40.829 22.4545V23.8182H36.8873V22.4545H40.829ZM37.7821 20.8864H39.5975V26.9886C39.5975 27.1562 39.623 27.2869 39.6742 27.3807C39.7253 27.4716 39.7963 27.5355 39.8873 27.5724C39.981 27.6094 40.089 27.6278 40.2111 27.6278C40.2963 27.6278 40.3816 27.6207 40.4668 27.6065C40.552 27.5895 40.6174 27.5767 40.6628 27.5682L40.9483 28.919C40.8574 28.9474 40.7296 28.9801 40.5648 29.017C40.4 29.0568 40.1998 29.081 39.964 29.0895C39.5265 29.1065 39.1429 29.0483 38.8134 28.9148C38.4867 28.7812 38.2324 28.5739 38.0506 28.2926C37.8688 28.0114 37.7793 27.6562 37.7821 27.2273V20.8864ZM42.0115 29V22.4545H43.8269V29H42.0115ZM42.9235 21.6108C42.6536 21.6108 42.4221 21.5213 42.2289 21.3423C42.0385 21.1605 41.9434 20.9432 41.9434 20.6903C41.9434 20.4403 42.0385 20.2259 42.2289 20.0469C42.4221 19.8651 42.6536 19.7741 42.9235 19.7741C43.1934 19.7741 43.4235 19.8651 43.6138 20.0469C43.807 20.2259 43.9036 20.4403 43.9036 20.6903C43.9036 20.9432 43.807 21.1605 43.6138 21.3423C43.4235 21.5213 43.1934 21.6108 42.9235 21.6108ZM51.3833 22.4545L49.095 29H47.0495L44.7612 22.4545H46.6788L48.0382 27.1378H48.1064L49.4615 22.4545H51.3833ZM55.0843 29.1278C54.411 29.1278 53.8315 28.9915 53.3457 28.7188C52.8627 28.4432 52.4906 28.054 52.2292 27.5511C51.9679 27.0455 51.8372 26.4474 51.8372 25.7571C51.8372 25.0838 51.9679 24.4929 52.2292 23.9844C52.4906 23.4759 52.8585 23.0795 53.3329 22.7955C53.8102 22.5114 54.3699 22.3693 55.0119 22.3693C55.4437 22.3693 55.8457 22.4389 56.2179 22.5781C56.5929 22.7145 56.9196 22.9205 57.198 23.196C57.4792 23.4716 57.698 23.8182 57.8542 24.2358C58.0105 24.6506 58.0886 25.1364 58.0886 25.6932V26.1918H52.5616V25.0668H56.3798C56.3798 24.8054 56.323 24.5739 56.2093 24.3722C56.0957 24.1705 55.938 24.0128 55.7363 23.8991C55.5375 23.7827 55.3059 23.7244 55.0417 23.7244C54.7662 23.7244 54.5218 23.7884 54.3088 23.9162C54.0985 24.0412 53.9338 24.2102 53.8145 24.4233C53.6951 24.6335 53.6341 24.8679 53.6312 25.1264V26.196C53.6312 26.5199 53.6909 26.7997 53.8102 27.0355C53.9324 27.2713 54.1042 27.4531 54.3258 27.581C54.5474 27.7088 54.8102 27.7727 55.1142 27.7727C55.3159 27.7727 55.5005 27.7443 55.6681 27.6875C55.8358 27.6307 55.9792 27.5455 56.0985 27.4318C56.2179 27.3182 56.3088 27.179 56.3713 27.0142L58.0502 27.125C57.965 27.5284 57.7903 27.8807 57.5261 28.1818C57.2647 28.4801 56.9267 28.7131 56.5119 28.8807C56.1 29.0455 55.6241 29.1278 55.0843 29.1278Z" fill="#3498DB"/>
</svg>
